<svg width="25" height="25" viewBox="0 0 25 25" fill="none" xmlns="http://www.w3.org/2000/svg">
<path d="M12.749 2.35352C9.0211 2.35352 5.99903 5.37559 5.99903 9.10352V12.8958L3.1059 17.7176C2.96689 17.9493 2.96324 18.2379 3.09637 18.473C3.2295 18.7082 3.47882 18.8535 3.74902 18.8535H9.07404C9.42149 20.5652 10.9348 21.8535 12.749 21.8535C14.5632 21.8535 16.0766 20.5652 16.424 18.8535H22.249C22.5287 18.8535 22.7852 18.6979 22.9143 18.4498C23.0434 18.2017 23.0238 17.9024 22.8634 17.6733L19.499 12.8692V9.10352C19.499 5.37559 16.4769 2.35352 12.749 2.35352Z" fill="#5F6D7E"/>
</svg>
