<?xml version="1.0" encoding="UTF-8"?>
<svg id="Layer_1" xmlns="http://www.w3.org/2000/svg" version="1.1" viewBox="0 0 32 32">
  <!-- Generator: Adobe Illustrator 29.6.1, SVG Export Plug-In . SVG Version: 2.1.1 Build 9)  -->
  <defs>
    <style>
      .st0 {
        fill: #8a8483;
        stroke: #f8f7f7;
        stroke-linecap: round;
        stroke-width: 1.1px;
      }

      .st1 {
        fill: #d7d6d6;
      }

      .st2 {
        fill: #f8f7f7;
      }
    </style>
  </defs>
  <path class="st1" d="M15.1,5.7c-2.6,0-4.8,2.1-4.8,4.7s2.1,4.8,4.8,4.8,4.7-2.1,4.7-4.8-2.1-4.7-4.7-4.7Z"/>
  <path class="st1" d="M15.1,17.7c-2.3,0-4.4.3-5.9.9-.8.3-1.5.7-1.9,1.1-.5.4-.9,1-.9,1.7s.4,1.3.9,1.7c.5.4,1.2.8,1.9,1.1,1.6.6,3.6.9,5.9.9s4.4-.3,5.9-.9c.8-.3,1.5-.7,1.9-1.1.5-.4.9-1,.9-1.7s-.4-1.3-.9-1.7c-.5-.4-1.2-.8-1.9-1.1-1.6-.6-3.6-.9-5.9-.9Z"/>
  <path class="st0" d="M22.8,15.7c3.7,0,6.7,3,6.7,6.7s-3,6.7-6.7,6.7-6.7-3-6.7-6.7,3-6.7,6.7-6.7Z"/>
  <path class="st2" d="M25.9,20c-.2-.3-.6-.3-.9,0-.3.2-.3.6,0,.9.4.5.6,1.1.6,1.7,0,1.5-1.2,2.7-2.7,2.7s-2.7-1.2-2.7-2.7.2-1.2.6-1.7c.2-.3.2-.7,0-.9-.3-.2-.7-.2-.9,0-.6.7-.9,1.6-.9,2.5,0,2.2,1.8,4,4,4s4-1.8,4-4-.3-1.8-.9-2.5h0Z"/>
  <path class="st2" d="M22.8,22.2c.4,0,.6-.3.6-.6v-3c0-.3-.3-.6-.6-.6s-.6.3-.6.6v3c0,.3.3.6.6.6h0Z"/>
</svg>