<svg width="30" height="21" viewBox="0 0 30 21" fill="none" xmlns="http://www.w3.org/2000/svg">
<path d="M9.41083 11.0045C9.3987 10.8684 9.3987 10.7215 9.3987 10.5733C9.3987 7.45629 11.9362 4.9052 15.0668 4.9052C15.215 4.9052 15.3498 4.9052 15.498 4.91732L17.7526 2.66278C16.878 2.51455 15.9778 2.44043 15.0668 2.44043C9.41077 2.44043 4.236 5.25016 0.553295 9.70925C0.184058 10.1647 0.184058 10.8183 0.553295 11.2738C1.90898 12.9489 3.39942 14.3423 4.976 15.4378L9.41083 11.0045Z" fill="#5F6D7E"/>
<path d="M29.5678 9.7108C27.7351 7.47244 25.4953 5.64378 22.9955 4.3839L24.9441 2.43529C25.4252 1.95421 25.4252 1.17396 24.9441 0.692842C24.463 0.211761 23.6828 0.211761 23.2017 0.692842L5.17624 18.7197C4.69516 19.2007 4.69516 19.981 5.17624 20.4621C5.41746 20.7033 5.7328 20.8233 6.04677 20.8233C6.36211 20.8233 6.67744 20.7033 6.91731 20.4621L9.60443 17.775C11.394 18.3909 13.2078 18.7062 14.992 18.7062H15.1147C20.1791 18.7062 25.5142 16.3155 29.5678 11.2769C29.937 10.8201 29.9371 10.1677 29.5678 9.7108ZM15.0664 16.2414C13.9479 16.2414 12.9129 15.9031 12.0356 15.3438L14.0274 13.3521C14.3535 13.4761 14.6971 13.5623 15.0664 13.5623C16.7104 13.5623 18.0553 12.2242 18.0553 10.5734C18.0553 10.2041 17.9664 9.86183 17.8424 9.53706L19.8355 7.54399C20.3961 8.42397 20.7344 9.46431 20.7344 10.5734C20.733 13.7038 18.1835 16.2414 15.0664 16.2414Z" fill="#5F6D7E"/>
</svg>
