<svg width="30" height="17" viewBox="0 0 30 17" fill="none" xmlns="http://www.w3.org/2000/svg">
<path fill-rule="evenodd" clip-rule="evenodd" d="M6.35514 2.9519C4.58337 4.099 3.00183 5.58823 1.43866 7.25796C0.743123 8.00091 0.74328 9.1555 1.43841 9.89884C5.07767 13.7905 8.78061 16.6738 15.0188 16.6738C21.257 16.6738 24.9599 13.7906 28.5992 9.89888C29.2943 9.15552 29.2943 8.00073 28.5992 7.25737C24.9599 3.36569 21.257 0.482422 15.0188 0.482422C11.4445 0.482422 8.70832 1.42672 6.35514 2.9519ZM17.652 6.18508C19.1061 7.50659 19.1061 9.64963 17.652 10.9712C15.3116 13.0981 11.2956 11.5833 11.2956 8.57809C11.2956 5.57287 15.3115 4.05928 17.652 6.18508ZM15.0188 3.41705C20.0625 3.41705 22.6041 8.98433 19.0347 12.2279C15.4657 15.4714 9.33969 13.1617 9.33969 8.57818C9.33969 5.72801 11.8825 3.41705 15.0188 3.41705Z" fill="#5F6D7E"/>
</svg>
