<svg width="19" height="19" viewBox="0 0 19 19" fill="none" xmlns="http://www.w3.org/2000/svg">
<path d="M4.88565 13.932C5.11653 14.1496 5.42441 14.2666 5.74157 14.2573C6.05872 14.2479 6.35917 14.113 6.57681 13.8821C6.79446 13.6512 6.91147 13.3433 6.90212 13.0262C6.89276 12.709 6.7578 12.4086 6.52692 12.1909L5.05238 10.8001L11.0439 10.8001C11.3563 10.793 11.6536 10.6638 11.8721 10.4403C12.0906 10.2168 12.2129 9.91669 12.2129 9.60414C12.2129 9.29159 12.0906 8.99146 11.8721 8.76795C11.6536 8.54445 11.3563 8.41533 11.0439 8.40821L5.05238 8.40821L6.52692 7.01487C6.75763 6.79706 6.89237 6.49652 6.9015 6.17937C6.91062 5.86221 6.79338 5.55442 6.57557 5.32371C6.35776 5.093 6.05722 4.95826 5.74007 4.94913C5.42292 4.94001 5.11513 5.05725 4.88441 5.27506L1.21822 8.73609C1.10019 8.84804 1.0062 8.98284 0.941964 9.13229C0.877731 9.28175 0.844605 9.44271 0.844605 9.60538C0.844605 9.76805 0.877731 9.92902 0.941964 10.0785C1.0062 10.2279 1.10019 10.3627 1.21822 10.4747L4.88565 13.932Z" fill="#7C8B9D"/>
<path d="M10.419 3.30853L15.8194 3.30853L15.8194 15.8988L10.419 15.8988C10.1019 15.8988 9.79779 16.0248 9.57357 16.249C9.34935 16.4732 9.22338 16.7773 9.22338 17.0944C9.22338 17.4115 9.34935 17.7156 9.57357 17.9399C9.79779 18.1641 10.1019 18.29 10.419 18.29L17.0157 18.29C17.3328 18.2897 17.6369 18.1636 17.8612 17.9393C18.0854 17.715 18.2116 17.411 18.2119 17.0938L18.2119 2.11291C18.2114 1.79585 18.0852 1.49194 17.861 1.2678C17.6367 1.04367 17.3327 0.917618 17.0157 0.91729L10.419 0.91729C10.1019 0.91729 9.79779 1.04326 9.57357 1.26748C9.34935 1.4917 9.22338 1.79581 9.22338 2.11291C9.22338 2.43001 9.34935 2.73412 9.57357 2.95834C9.79779 3.18256 10.1019 3.30853 10.419 3.30853Z" fill="#7C8B9D"/>
</svg>
