<svg width="21" height="21" viewBox="0 0 21 21" fill="none" xmlns="http://www.w3.org/2000/svg">
<path d="M11.4033 2.92969C11.51 2.92969 11.6002 3.00094 11.623 3.1084L11.6289 3.15723V9.69629H7.56152C6.94394 9.69654 6.43656 10.2037 6.43652 10.8213C6.43652 11.4284 6.92552 11.9449 7.56152 11.9365V11.9385H11.6201V18.3799C11.62 18.4999 11.5226 18.5967 11.4033 18.5967C9.06876 18.5966 7.11699 17.7839 5.75 16.417C4.38294 15.0499 3.57031 13.0975 3.57031 10.7627C3.57039 8.42804 4.383 6.47637 5.75 5.10938C7.117 3.74238 9.06867 2.92977 11.4033 2.92969Z" stroke="white"/>
<path d="M13.8857 7.65234C14.3227 7.21542 15.0396 7.21541 15.4766 7.65234H15.4775L17.8438 10.0273L17.9199 10.1113C18.2737 10.5454 18.2565 11.1916 17.834 11.5986L17.8359 11.6006L15.4688 13.9756C15.245 14.1993 14.9566 14.3057 14.6729 14.3057C14.3891 14.3056 14.1016 14.1992 13.8779 13.9756C13.4411 13.5387 13.4412 12.8227 13.8779 12.3857L14.3252 11.9385H11.623V9.68848H14.332L13.8857 9.24219C13.4492 8.80537 13.4493 8.08921 13.8857 7.65234Z" stroke="white"/>
</svg>
