<svg width="33" height="30" viewBox="0 0 33 30" fill="none" xmlns="http://www.w3.org/2000/svg">
<g opacity="0.7">
<path d="M10.3711 10.0596C10.4862 10.0596 10.5791 9.97063 10.5791 9.86133C10.5791 9.75202 10.4862 9.66309 10.3711 9.66309M10.3711 10.0596V9.66309M10.3711 10.0596L10.3291 10.0557C10.2477 10.0399 10.1837 9.97863 10.167 9.90137L10.1631 9.86133C10.1631 9.75202 10.256 9.66309 10.3711 9.66309M10.3711 10.0596V9.66309M10.3711 2.64258C14.6067 2.64258 17.9961 5.89838 17.9961 9.86133C17.9961 13.8243 14.6067 17.0801 10.3711 17.0801C6.13545 17.0801 2.74609 13.8243 2.74609 9.86133C2.74609 5.89838 6.13545 2.64258 10.3711 2.64258ZM10.3711 4.80957C7.47306 4.80957 5.0791 7.04728 5.0791 9.86133C5.0791 12.6754 7.47306 14.9131 10.3711 14.9131C13.2691 14.9131 15.6631 12.6754 15.6631 9.86133C15.6631 7.04728 13.2691 4.80957 10.3711 4.80957ZM10.3711 6.99707C12.0754 6.99707 13.4131 8.30312 13.4131 9.86133C13.4131 11.4195 12.0754 12.7256 10.3711 12.7256C8.66675 12.7256 7.3291 11.4195 7.3291 9.86133C7.3291 8.30312 8.66675 6.99707 10.3711 6.99707ZM10.3711 7.97559C9.31401 7.97559 8.41309 8.79618 8.41309 9.86133C8.41309 10.9265 9.31401 11.7471 10.3711 11.7471C11.4282 11.7471 12.3291 10.9265 12.3291 9.86133C12.3291 8.79618 11.4282 7.97559 10.3711 7.97559Z" stroke="#F2F2F2"/>
</g>
<path fill-rule="evenodd" clip-rule="evenodd" d="M19.6828 7.61133C18.5441 7.61133 17.6211 8.53438 17.6211 9.67303V9.93009C17.6211 10.0089 17.5614 10.1345 17.4013 10.2009C17.2471 10.265 17.1205 10.2216 17.0611 10.1622L16.7844 9.88557C15.9091 9.01026 14.4899 9.01026 13.6146 9.88557L12.8953 10.6049C12.02 11.4802 12.02 12.8993 12.8953 13.7747L13.172 14.0513C13.2314 14.1107 13.2747 14.2373 13.2107 14.3915C13.1442 14.5516 13.0187 14.6113 12.9399 14.6113H12.6828C11.5441 14.6113 10.6211 15.5344 10.6211 16.673V18.0496C10.6211 19.1883 11.5441 20.1113 12.6828 20.1113H13.0909C13.0904 20.1113 13.0911 20.1113 13.0909 20.1113C13.0913 20.1114 13.0929 20.1116 13.0939 20.1119C13.096 20.1127 13.1007 20.1147 13.1072 20.1194C13.1212 20.1296 13.1375 20.1485 13.1478 20.1748C13.1573 20.1992 13.1578 20.2207 13.1552 20.2345C13.153 20.2466 13.1493 20.2503 13.1482 20.2515L12.8298 20.5699C11.9907 21.409 11.9907 22.7695 12.8298 23.6086L13.7946 24.5735C14.5705 25.3494 15.8285 25.3494 16.6044 24.5735L16.6489 24.529C16.7704 24.4074 17.0028 24.3484 17.2561 24.4597C17.5052 24.5692 17.6211 24.7738 17.6211 24.9338V25.0496C17.6211 26.1883 18.5441 27.1113 19.6828 27.1113H21.0594C22.198 27.1113 23.1211 26.1883 23.1211 25.0496V24.7926C23.1211 24.7138 23.1808 24.5882 23.3409 24.5217C23.4951 24.4577 23.6217 24.501 23.6811 24.5604L23.7682 24.6475C24.5032 25.3825 25.6948 25.3825 26.4298 24.6475L27.6573 23.4201C28.3923 22.6851 28.3923 21.4934 27.6573 20.7584L27.5702 20.6713C27.5108 20.6119 27.4675 20.4853 27.5315 20.3311C27.5979 20.171 27.7235 20.1113 27.8023 20.1113H28.0594C29.198 20.1113 30.1211 19.1883 30.1211 18.0496V16.673C30.1211 15.5344 29.198 14.6113 28.0594 14.6113H27.9436C27.7835 14.6113 27.5789 14.4955 27.4694 14.2463C27.3582 13.9931 27.4172 13.7607 27.5387 13.6391L27.5832 13.5946C28.3591 12.8187 28.3591 11.5608 27.5832 10.7849L26.6184 9.82004C25.7792 8.98091 24.4188 8.98091 23.5796 9.82004L23.2612 10.1385C23.2601 10.1396 23.2564 10.1433 23.2443 10.1455C23.2304 10.148 23.209 10.1475 23.1845 10.138C23.1582 10.1278 23.1394 10.1114 23.1292 10.0974C23.1244 10.091 23.1224 10.0863 23.1217 10.0841C23.1211 10.0823 23.1211 10.0815 23.1211 10.0811V9.67303C23.1211 8.53438 22.198 7.61133 21.0594 7.61133H19.6828ZM18.1211 17.3613C18.1211 16.1187 19.1285 15.1113 20.3711 15.1113C21.6137 15.1113 22.6211 16.1187 22.6211 17.3613C22.6211 18.604 21.6137 19.6113 20.3711 19.6113C19.1285 19.6113 18.1211 18.604 18.1211 17.3613Z" fill="#3D3D3D"/>
<path d="M13.0909 20.1113H12.6828C11.5441 20.1113 10.6211 19.1883 10.6211 18.0496V16.673C10.6211 15.5344 11.5441 14.6113 12.6828 14.6113H12.9399C13.0187 14.6113 13.1442 14.5516 13.2107 14.3915C13.2747 14.2373 13.2314 14.1107 13.172 14.0513L12.8953 13.7747C12.02 12.8993 12.02 11.4802 12.8953 10.6049L13.6146 9.88557C14.4899 9.01026 15.9091 9.01026 16.7844 9.88557L17.0611 10.1622C17.1205 10.2216 17.2471 10.265 17.4013 10.2009C17.5614 10.1345 17.6211 10.0089 17.6211 9.93009V9.67303C17.6211 8.53438 18.5441 7.61133 19.6828 7.61133H21.0594C22.198 7.61133 23.1211 8.53438 23.1211 9.67303V10.0811C23.1211 10.0815 23.1211 10.0823 23.1217 10.0841C23.1224 10.0863 23.1244 10.091 23.1292 10.0974C23.1394 10.1114 23.1582 10.1278 23.1845 10.138C23.209 10.1475 23.2304 10.148 23.2443 10.1455C23.2564 10.1433 23.2601 10.1396 23.2612 10.1385L23.5796 9.82004C24.4188 8.98091 25.7792 8.98091 26.6184 9.82004L27.5832 10.7849C28.3591 11.5608 28.3591 12.8187 27.5832 13.5946L27.5387 13.6391C27.4172 13.7607 27.3582 13.9931 27.4694 14.2463C27.5789 14.4955 27.7835 14.6113 27.9436 14.6113H28.0594C29.198 14.6113 30.1211 15.5344 30.1211 16.673V18.0496C30.1211 19.1883 29.198 20.1113 28.0594 20.1113H27.8023C27.7235 20.1113 27.5979 20.171 27.5315 20.3311C27.4675 20.4853 27.5108 20.6119 27.5702 20.6713L27.6573 20.7584C28.3923 21.4934 28.3923 22.6851 27.6573 23.4201L26.4298 24.6475C25.6948 25.3825 24.5032 25.3825 23.7682 24.6475L23.6811 24.5604C23.6217 24.501 23.4951 24.4577 23.3409 24.5217C23.1808 24.5882 23.1211 24.7138 23.1211 24.7926V25.0496C23.1211 26.1883 22.198 27.1113 21.0594 27.1113H19.6828C18.5441 27.1113 17.6211 26.1883 17.6211 25.0496V24.9338C17.6211 24.7738 17.5052 24.5692 17.2561 24.4597C17.0028 24.3484 16.7704 24.4074 16.6489 24.529L16.6044 24.5735C15.8285 25.3494 14.5705 25.3494 13.7946 24.5735L12.8298 23.6086C11.9907 22.7695 11.9907 21.409 12.8298 20.5699L13.1482 20.2515C13.1493 20.2503 13.153 20.2466 13.1552 20.2345C13.1578 20.2207 13.1573 20.1992 13.1478 20.1748C13.1375 20.1485 13.1212 20.1296 13.1072 20.1194C13.1007 20.1147 13.096 20.1127 13.0939 20.1119C13.0929 20.1116 13.0913 20.1114 13.0909 20.1113ZM13.0909 20.1113C13.0904 20.1113 13.0911 20.1113 13.0909 20.1113ZM20.3711 15.1113C19.1285 15.1113 18.1211 16.1187 18.1211 17.3613C18.1211 18.604 19.1285 19.6113 20.3711 19.6113C21.6137 19.6113 22.6211 18.604 22.6211 17.3613C22.6211 16.1187 21.6137 15.1113 20.3711 15.1113Z" stroke="#F2F2F2" stroke-linejoin="round"/>
</svg>
