<svg width="33" height="31" viewBox="0 0 33 31" fill="none" xmlns="http://www.w3.org/2000/svg">
<g opacity="0.7">
<path d="M10.3717 2.73633C8.18562 2.73633 6.41341 4.50853 6.41341 6.69466C6.41341 8.88079 8.18562 10.653 10.3717 10.653C12.5579 10.653 14.3301 8.88079 14.3301 6.69466C14.3301 4.50853 12.5579 2.73633 10.3717 2.73633Z" stroke="#F2F2F2"/>
<path d="M10.3717 12.7363C8.47569 12.7363 6.73129 13.0235 5.43825 13.5084C4.79403 13.7499 4.22928 14.0527 3.81435 14.4206C3.40015 14.7878 3.08008 15.2732 3.08008 15.8613C3.08008 16.4494 3.40015 16.9349 3.81435 17.3021C4.22928 17.67 4.79403 17.9727 5.43825 18.2143C6.73129 18.6992 8.47569 18.9863 10.3717 18.9863C12.2678 18.9863 14.0122 18.6992 15.3052 18.2143C15.9495 17.9727 16.5142 17.67 16.9291 17.3021C17.3433 16.9349 17.6634 16.4494 17.6634 15.8613C17.6634 15.2732 17.3433 14.7878 16.9291 14.4206C16.5142 14.0527 15.9495 13.7499 15.3052 13.5084C14.0122 13.0235 12.2678 12.7363 10.3717 12.7363Z" stroke="#F2F2F2"/>
</g>
<path fill-rule="evenodd" clip-rule="evenodd" d="M19.6828 9.11133C18.5441 9.11133 17.6211 10.0344 17.6211 11.173V11.4301C17.6211 11.5089 17.5614 11.6345 17.4013 11.7009C17.2471 11.765 17.1205 11.7216 17.0611 11.6622L16.7844 11.3856C15.9091 10.5103 14.4899 10.5103 13.6146 11.3856L12.8953 12.1049C12.02 12.9802 12.02 14.3993 12.8953 15.2747L13.172 15.5513C13.2314 15.6107 13.2747 15.7373 13.2107 15.8915C13.1442 16.0516 13.0187 16.1113 12.9399 16.1113H12.6828C11.5441 16.1113 10.6211 17.0344 10.6211 18.173V19.5496C10.6211 20.6883 11.5441 21.6113 12.6828 21.6113H13.0909C13.0904 21.6113 13.0911 21.6113 13.0909 21.6113C13.0913 21.6114 13.0929 21.6116 13.0939 21.6119C13.096 21.6127 13.1007 21.6147 13.1072 21.6194C13.1212 21.6296 13.1375 21.6485 13.1478 21.6748C13.1573 21.6992 13.1578 21.7207 13.1552 21.7345C13.153 21.7466 13.1493 21.7503 13.1482 21.7515L12.8298 22.0699C11.9907 22.909 11.9907 24.2695 12.8298 25.1086L13.7946 26.0735C14.5705 26.8494 15.8285 26.8494 16.6044 26.0735L16.6489 26.029C16.7704 25.9074 17.0028 25.8484 17.2561 25.9597C17.5052 26.0692 17.6211 26.2738 17.6211 26.4338V26.5496C17.6211 27.6883 18.5441 28.6113 19.6828 28.6113H21.0594C22.198 28.6113 23.1211 27.6883 23.1211 26.5496V26.2926C23.1211 26.2138 23.1808 26.0882 23.3409 26.0217C23.4951 25.9577 23.6217 26.001 23.6811 26.0604L23.7682 26.1475C24.5032 26.8825 25.6948 26.8825 26.4298 26.1475L27.6573 24.9201C28.3923 24.1851 28.3923 22.9934 27.6573 22.2584L27.5702 22.1713C27.5108 22.1119 27.4675 21.9853 27.5315 21.8311C27.5979 21.671 27.7235 21.6113 27.8023 21.6113H28.0594C29.198 21.6113 30.1211 20.6883 30.1211 19.5496V18.173C30.1211 17.0344 29.198 16.1113 28.0594 16.1113H27.9436C27.7835 16.1113 27.5789 15.9955 27.4694 15.7463C27.3582 15.4931 27.4172 15.2607 27.5387 15.1391L27.5832 15.0946C28.3591 14.3187 28.3591 13.0608 27.5832 12.2849L26.6184 11.32C25.7792 10.4809 24.4188 10.4809 23.5796 11.32L23.2612 11.6385C23.2601 11.6396 23.2564 11.6433 23.2443 11.6455C23.2304 11.648 23.209 11.6475 23.1845 11.638C23.1582 11.6278 23.1394 11.6114 23.1292 11.5974C23.1244 11.591 23.1224 11.5863 23.1217 11.5841C23.1211 11.5823 23.1211 11.5815 23.1211 11.5811V11.173C23.1211 10.0344 22.198 9.11133 21.0594 9.11133H19.6828ZM18.1211 18.8613C18.1211 17.6187 19.1285 16.6113 20.3711 16.6113C21.6137 16.6113 22.6211 17.6187 22.6211 18.8613C22.6211 20.104 21.6137 21.1113 20.3711 21.1113C19.1285 21.1113 18.1211 20.104 18.1211 18.8613Z" fill="#3D3D3D"/>
<path d="M13.0909 21.6113H12.6828C11.5441 21.6113 10.6211 20.6883 10.6211 19.5496V18.173C10.6211 17.0344 11.5441 16.1113 12.6828 16.1113H12.9399C13.0187 16.1113 13.1442 16.0516 13.2107 15.8915C13.2747 15.7373 13.2314 15.6107 13.172 15.5513L12.8953 15.2747C12.02 14.3993 12.02 12.9802 12.8953 12.1049L13.6146 11.3856C14.4899 10.5103 15.9091 10.5103 16.7844 11.3856L17.0611 11.6622C17.1205 11.7216 17.2471 11.765 17.4013 11.7009C17.5614 11.6345 17.6211 11.5089 17.6211 11.4301V11.173C17.6211 10.0344 18.5441 9.11133 19.6828 9.11133H21.0594C22.198 9.11133 23.1211 10.0344 23.1211 11.173V11.5811C23.1211 11.5815 23.1211 11.5823 23.1217 11.5841C23.1224 11.5863 23.1244 11.591 23.1292 11.5974C23.1394 11.6114 23.1582 11.6278 23.1845 11.638C23.209 11.6475 23.2304 11.648 23.2443 11.6455C23.2564 11.6433 23.2601 11.6396 23.2612 11.6385L23.5796 11.32C24.4188 10.4809 25.7792 10.4809 26.6184 11.32L27.5832 12.2849C28.3591 13.0608 28.3591 14.3187 27.5832 15.0946L27.5387 15.1391C27.4172 15.2607 27.3582 15.4931 27.4694 15.7463C27.5789 15.9955 27.7835 16.1113 27.9436 16.1113H28.0594C29.198 16.1113 30.1211 17.0344 30.1211 18.173V19.5496C30.1211 20.6883 29.198 21.6113 28.0594 21.6113H27.8023C27.7235 21.6113 27.5979 21.671 27.5315 21.8311C27.4675 21.9853 27.5108 22.1119 27.5702 22.1713L27.6573 22.2584C28.3923 22.9934 28.3923 24.1851 27.6573 24.9201L26.4298 26.1475C25.6948 26.8825 24.5032 26.8825 23.7682 26.1475L23.6811 26.0604C23.6217 26.001 23.4951 25.9577 23.3409 26.0217C23.1808 26.0882 23.1211 26.2138 23.1211 26.2926V26.5496C23.1211 27.6883 22.198 28.6113 21.0594 28.6113H19.6828C18.5441 28.6113 17.6211 27.6883 17.6211 26.5496V26.4338C17.6211 26.2738 17.5052 26.0692 17.2561 25.9597C17.0028 25.8484 16.7704 25.9074 16.6489 26.029L16.6044 26.0735C15.8285 26.8494 14.5705 26.8494 13.7946 26.0735L12.8298 25.1086C11.9907 24.2695 11.9907 22.909 12.8298 22.0699L13.1482 21.7515C13.1493 21.7503 13.153 21.7466 13.1552 21.7345C13.1578 21.7207 13.1573 21.6992 13.1478 21.6748C13.1375 21.6485 13.1212 21.6296 13.1072 21.6194C13.1007 21.6147 13.096 21.6127 13.0939 21.6119C13.0929 21.6116 13.0913 21.6114 13.0909 21.6113ZM13.0909 21.6113C13.0904 21.6113 13.0911 21.6113 13.0909 21.6113ZM20.3711 16.6113C19.1285 16.6113 18.1211 17.6187 18.1211 18.8613C18.1211 20.104 19.1285 21.1113 20.3711 21.1113C21.6137 21.1113 22.6211 20.104 22.6211 18.8613C22.6211 17.6187 21.6137 16.6113 20.3711 16.6113Z" stroke="#F2F2F2" stroke-linejoin="round"/>
</svg>
