<svg width="25" height="25" viewBox="0 0 25 25" fill="none" xmlns="http://www.w3.org/2000/svg">
<path d="M12.8447 2.85352C10.2214 2.85352 8.09473 4.98016 8.09473 7.60352C8.09473 10.2269 10.2214 12.3535 12.8447 12.3535C15.4681 12.3535 17.5947 10.2269 17.5947 7.60352C17.5947 4.98016 15.4681 2.85352 12.8447 2.85352Z" stroke="#F2F2F2"/>
<path d="M12.8447 14.8535C10.5695 14.8535 8.47619 15.1981 6.92453 15.7799C6.15147 16.0698 5.47377 16.4331 4.97585 16.8746C4.47881 17.3153 4.09473 17.8978 4.09473 18.6035C4.09473 19.3092 4.47881 19.8918 4.97585 20.3324C5.47377 20.7739 6.15147 21.1372 6.92453 21.4271C8.47619 22.009 10.5695 22.3535 12.8447 22.3535C15.12 22.3535 17.2133 22.009 18.7649 21.4271C19.538 21.1372 20.2157 20.7739 20.7136 20.3324C21.2106 19.8918 21.5947 19.3092 21.5947 18.6035C21.5947 17.8978 21.2106 17.3153 20.7136 16.8746C20.2157 16.4331 19.538 16.0698 18.7649 15.7799C17.2133 15.1981 15.12 14.8535 12.8447 14.8535Z" stroke="#F2F2F2"/>
</svg>
