<svg width="26" height="25" viewBox="0 0 26 25" fill="none" xmlns="http://www.w3.org/2000/svg">
<path d="M12.8447 3.85352C10.7737 3.85352 9.09473 5.53245 9.09473 7.60352C9.09473 9.67458 10.7737 11.3535 12.8447 11.3535C14.9158 11.3535 16.5947 9.67458 16.5947 7.60352C16.5947 5.53245 14.9158 3.85352 12.8447 3.85352Z" stroke="#F2F2F2"/>
<path d="M5.84473 7.85352C4.32594 7.85352 3.09473 9.08473 3.09473 10.6035C3.09473 12.1223 4.32594 13.3535 5.84473 13.3535C7.36351 13.3535 8.59473 12.1223 8.59473 10.6035C8.59473 9.08473 7.36351 7.85352 5.84473 7.85352Z" stroke="#F2F2F2"/>
<path d="M19.8447 7.85352C18.3259 7.85352 17.0947 9.08473 17.0947 10.6035C17.0947 12.1223 18.3259 13.3535 19.8447 13.3535C21.3635 13.3535 22.5947 12.1223 22.5947 10.6035C22.5947 9.08473 21.3635 7.85352 19.8447 7.85352Z" stroke="#F2F2F2"/>
<path d="M12.8447 13.8535C10.8709 13.8535 9.03926 14.3043 7.78497 15.079C7.19071 14.933 6.53249 14.8535 5.84473 14.8535C4.64897 14.8535 3.52934 15.0943 2.68089 15.5185C1.8773 15.9203 1.09473 16.6141 1.09473 17.6035C1.09473 18.5929 1.8773 19.2868 2.68089 19.6885C3.52934 20.1128 4.64897 20.3535 5.84473 20.3535C6.53249 20.3535 7.19071 20.274 7.78497 20.128C9.03926 20.9027 10.8709 21.3535 12.8447 21.3535C14.8186 21.3535 16.6502 20.9027 17.9045 20.128C18.4987 20.274 19.157 20.3535 19.8447 20.3535C21.0405 20.3535 22.1601 20.1128 23.0086 19.6885C23.8122 19.2868 24.5947 18.5929 24.5947 17.6035C24.5947 16.6141 23.8122 15.9203 23.0086 15.5185C22.1601 15.0943 21.0405 14.8535 19.8447 14.8535C19.157 14.8535 18.4987 14.933 17.9045 15.079C16.6502 14.3043 14.8186 13.8535 12.8447 13.8535Z" stroke="#F2F2F2"/>
</svg>
